<svg class="vector" width="300px" height="300px" xmlns="http://www.w3.org/2000/svg" baseProfile="full" version="1.1" style="width: 300px; height: 300px; fill: none; stroke-width: 5;"><g transform="translate(0,0)"><path id="layer_3" d="" style="stroke: rgb(68, 68, 68); stroke-width: 5; stroke-linecap: round; stroke-linejoin: round; fill: none; stroke-dasharray: 0, 0;"></path><path id="layer_2" d="" style="stroke: rgb(119, 119, 119); stroke-width: 5; stroke-linecap: round; stroke-linejoin: round; fill: none; stroke-dasharray: 0, 0;"></path><path id="layer_1" d="M120,255 A0,-180 0 0,0 120,75 A0,0 0 0,0 120,75 A0,0 0 0,0 120,75 A135,105 0 0,0 255,180 A0,0 0 0,0 255,180 M120,255 A-75,-105 0 0,0 45,150 A0,-120 0 0,0 45,30 A210,0 0 0,0 255,30 A0,150 0 0,0 255,180 A0,0 0 0,0 255,180 " style="stroke: rgb(255, 255, 255); stroke-width: 15; stroke-linecap: square; stroke-linejoin: miter; fill: none; stroke-dasharray: 0, 0;"></path></g><g><path id="mirror_layer_3" d="" transform="translate(0,300),scale(1,-1)" style="stroke: rgb(68, 68, 68); stroke-width: 5; stroke-linecap: round; stroke-linejoin: round; fill: none; stroke-dasharray: 0, 0;"></path><path id="mirror_layer_2" d="" transform="translate(0,300),scale(1,-1)" style="stroke: rgb(119, 119, 119); stroke-width: 5; stroke-linecap: round; stroke-linejoin: round; fill: none; stroke-dasharray: 0, 0;"></path><path id="mirror_layer_1" d="M120,255 A0,-180 0 0,0 120,75 A0,0 0 0,0 120,75 A0,0 0 0,0 120,75 A135,105 0 0,0 255,180 A0,0 0 0,0 255,180 M120,255 A-75,-105 0 0,0 45,150 A0,-120 0 0,0 45,30 A210,0 0 0,0 255,30 A0,150 0 0,0 255,180 A0,0 0 0,0 255,180 " transform="translate(0,300),scale(1,-1)" style="stroke: rgb(255, 255, 255); stroke-width: 15; stroke-linecap: square; stroke-linejoin: miter; fill: none; stroke-dasharray: 0, 0;"></path></g></svg>